<?xml version="1.0" encoding="utf-8"?>
<!-- Generator: Adobe Illustrator 27.7.0, SVG Export Plug-In . SVG Version: 6.00 Build 0)  -->
<svg version="1.1" baseProfile="tiny" id="Capa_1" xmlns="http://www.w3.org/2000/svg" xmlns:xlink="http://www.w3.org/1999/xlink"
	 x="0px" y="0px" viewBox="0 0 1200 1200" overflow="visible" xml:space="preserve">
<path fill="#0094FF" d="M714.12,971.53c-24.97,4.61-50.74,7.02-77.12,7.02c-111.52-0.09-211.39-42.69-285.04-112.56
	c44.58,14.58,93.05,22.34,142.46,22.34c34.93,0,68.82-3.88,100.82-10.7c25.16,11.51,51.43,20.47,78.52,26.59
	c3.96-4.78,8.07-9.42,12.46-13.81c-15.87-7.59-31.35-16.07-46.4-25.37c37.65-12.72,73.43-30.24,106.49-51.73
	c-3.34-3.27-6.66-6.56-9.98-9.86c-41.31,18.95-86.14,31.49-133.34,36.32c-51.4-38.81-95.04-89.17-126.95-149.29
	c84.35-22.34,159.98-66.93,219.06-127.99c-64.94,53.3-145.41,87.28-235.53,94c-1.89-4.83-4.83-10.7-7.76-16.47
	c-19.41-47.52-29.06-96.94-32.94-145.41c61.06-25.18,116.34-62.01,160.93-108.58c-46.58,38.81-101.76,66.93-161.88,82.36
	c-0.95-80.46,20.35-157.99,57.18-226.82c-62.01,64.94-99.87,148.34-108.58,237.51c-16.47,1.89-32.94,2.93-50.36,2.93h-0.95
	c-44.59,0-73.65-46.58-55.28-86.24C324.88,253.32,469.34,153.45,637,153.45c100.82,0,192.93,35.88,264.69,95.04
	c-89.17-94-218.11-149.29-359.64-142.47C303.6,118.61,111.61,316.37,105.84,554.84c-5.77,259.77,202.58,471.14,462.34,471.14
	c54.26,0,106.53-9.34,155.09-26.56C720.99,989.86,718.13,980.49,714.12,971.53z M223.03,529.64L223.03,529.64l0-1.89
	c7.76,0,14.58,0.95,22.34,0.95c40.71,0,80.46-4.83,118.24-15.52c-0.95,47.52,7.76,95.99,25.18,142.47
	C344.2,655.64,230.79,638.22,223.03,529.64z M243.37,690.57L243.37,690.57c36.83,9.66,75.64,14.58,115.4,14.58
	c16.47,0,33.89-0.95,50.36-2.93c29.06,56.23,70.81,102.71,120.22,136.7C414.91,830.2,294.78,810.8,243.37,690.57z"/>
<path fill="#0094FF" d="M993.35,809.58L795.99,935.92c-13.1,8.31-26.85,15.59-41.27,21.36l-67.52,26.28l51.91-50.21
	c11.07-10.74,23.41-20.61,36.26-29.06l196.26-129.51c5.3-3.59,11.46-5.49,17.96-5.68l0.38-0.01l27.06,0.08l-10.66,24.93
	c-2.73,6.44-7.12,11.73-13.04,15.53L993.35,809.58z M925.82,1082.98l-3.01,1.81c-2.86,1.8-5.61,1.26-6.96,0.82
	c-1.26-0.59-3.83-1.85-4.69-5.27l-45.69-159.13l46.52-29.83l17.3,184.34c0.23,2.91-1.08,5.67-3.57,7.18L925.82,1082.98z
	 M746.01,1026.57l-16.23,10.75l-5.09-40.87l20.7-8.44l0.63,38.42L746.01,1026.57z M654,921.02l16.33-10.75l38.18,17.74l-16.33,15.77
	l-38.23-22.76L654,921.02z M690.07,740.42c-2.74-2.12-2.97-5.08-2.86-6.42c0.1-1.48,0.59-4.32,3.51-6.08l3.01-1.81
	c2.39-1.65,5.45-1.73,8.07-0.38l161.56,90.45l-46.12,30.44L690.21,740.51L690.07,740.42z M764.86,727.75
	c2.3-1.55,5.45-1.73,8.95,0.22c3.59,1.86,4.07,5.14,4.11,6.48c0.02,0.86-0.16,2.68-1.21,4.43l-15.55-8.73l3.85-2.45L764.86,727.75z
	 M838.23,768.86c2.39-1.55,5.45-1.64,9.04,0.22c3.5,1.86,3.93,5.29,3.97,6.63c0.02,0.86-0.16,2.68-1.12,4.33l-15.69-8.73l3.85-2.45
	L838.23,768.86z M944.23,918.65c1.26,0.59,4.08,2.32,4.52,7.47c0.32,2.91-1.08,5.53-3.57,7.08l-3.71,2.45l-1.61-17.69
	c1.95-0.3,3.69,0.28,4.42,0.59L944.23,918.65z M952.14,1002.52c1.12,0.59,4.08,2.32,4.51,7.33c0.23,2.91-1.08,5.67-3.57,7.18
	l-3.85,2.45l-1.61-17.69c1.95-0.3,3.78,0.27,4.56,0.59L952.14,1002.52z M1029.42,803.85l10.57-24.92
	c3.45-8.04,2.57-16.95-2.18-24.27c-4.84-7.08-12.94-11.25-21.6-11.14l-26.57,0.38c-10.99,0.32-22.27,3.7-31.8,9.85l-70.99,46.98
	l-14.92-8.37c3.05-5.25,4.7-11.27,4.37-17.53c-0.33-11.61-6.75-21.94-17.83-28.12c-10.69-5.96-23.68-5.44-33.86,1.21l-14.78,9.6
	l-11.47-6.41c3.05-5.25,4.7-11.13,4.52-17.39c-0.48-11.6-6.75-21.94-17.83-28.27c-10.68-5.81-23.77-5.44-34,1.22l-14.78,9.6
	l-22.25-12.32c-10.69-6.05-23.78-5.58-34.01,1.12l-3.01,1.81c-8.87,5.75-14.24,15.09-14.8,25.62c-0.65,10.54,3.65,20.45,11.68,27.06
	l121.29,101.41l-33.64,22.24c-11.78,7.7-22.9,16.67-33.29,26.15l-47.48-22.01c-7.95-3.69-16.87-3.05-24.19,1.65l-16.33,10.75
	c-7.23,4.75-11.49,12.71-11.39,21.36c0.25,8.69,4.77,16.41,12.12,20.93l32.5,19.53l-3.91,3.79c-7.87,7.45-10.35,19.04-6.25,28.58
	c4.21,10.01,14.18,15.99,24.45,15.7c2.91-0.08,5.86-0.65,8.74-1.83l4.25-1.7l4.19,34.25c1.11,8.53,6.43,15.83,14.38,19.52
	c3.58,1.62,7.29,2.47,11.21,2.36c4.54-0.13,8.99-1.5,12.84-4.05l16.47-10.75c7.23-4.61,11.5-12.57,11.25-21.26l-0.68-48.46
	c13.55-5.89,26.7-12.62,39.18-20.73l33.99-21.77l43.67,152.11c2.97,10.05,10.18,18.07,20.08,21.7c4.06,1.46,8.38,2.2,12.44,2.08
	c5.97-0.17,11.8-1.92,16.96-5.36l2.86-1.8c10.33-6.66,15.86-18.58,14.8-30.64l-2.31-25.51l14.78-9.6
	c10.23-6.65,15.87-18.34,14.78-31.5c-0.95-11.59-7.84-21.58-18.26-26.63c-5.72-2.9-11.87-3.67-17.82-3.03l-1.1-13.16l14.78-9.6
	c10.23-6.65,15.88-18.19,14.63-31.5c-0.95-11.59-7.84-21.57-18.26-26.63c-5.72-2.75-11.72-3.68-17.73-3.03l-1.59-16.97l71.03-45.5
	c9.95-6.41,17.91-15.67,22.61-26.71L1029.42,803.85z"/>
</svg>
