<?xml version="1.0" encoding="utf-8"?>
<!-- Generator: Adobe Illustrator 27.7.0, SVG Export Plug-In . SVG Version: 6.00 Build 0)  -->
<svg version="1.1" baseProfile="tiny" id="Capa_1" xmlns="http://www.w3.org/2000/svg" xmlns:xlink="http://www.w3.org/1999/xlink"
	 x="0px" y="0px" viewBox="0 0 1200 1200" overflow="visible" xml:space="preserve">
<path fill="#0094FF" d="M637,978.55c-111.52-0.09-211.39-42.69-285.04-112.56c44.58,14.58,93.05,22.34,142.46,22.34
	c34.93,0,68.82-3.88,100.82-10.7c2.15,0.99,4.32,1.94,6.49,2.89c0.75-14.35,0.64-28.69-1.69-43.03
	c-50.12-38.5-92.7-88.07-123.98-147.02c44.96-11.91,87.45-30.14,126.27-53.82c-4.77-3.5-9.97-7.09-15.42-9.75
	c-39.53,16.02-82.22,26.22-127.32,29.58c-1.89-4.83-4.83-10.7-7.76-16.47c-19.41-47.52-29.06-96.94-32.94-145.41
	c61.06-25.18,116.34-62.01,160.93-108.58c-46.58,38.81-101.76,66.93-161.88,82.36c-0.95-80.46,20.35-157.99,57.18-226.82
	c-62.01,64.94-99.87,148.34-108.58,237.51c-16.47,1.89-32.94,2.93-50.36,2.93h-0.95c-44.59,0-73.65-46.58-55.28-86.24
	C324.88,253.32,469.34,153.45,637,153.45c100.82,0,192.93,35.88,264.69,95.04c-89.17-94-218.11-149.29-359.64-142.47
	C303.6,118.61,111.61,316.37,105.84,554.84c-5.77,259.77,202.58,471.14,462.34,471.14c54.26,0,106.53-9.34,155.09-26.56
	c-2.28-9.55-5.14-18.93-9.14-27.89C689.15,976.13,663.38,978.55,637,978.55z M223.03,529.64L223.03,529.64l0-1.89
	c7.76,0,14.58,0.95,22.34,0.95c40.71,0,80.46-4.83,118.24-15.52c-0.95,47.52,7.76,95.99,25.18,142.47
	C344.2,655.64,230.79,638.22,223.03,529.64z M243.37,690.57L243.37,690.57c36.83,9.66,75.64,14.58,115.4,14.58
	c16.47,0,33.89-0.95,50.36-2.93c29.06,56.23,70.81,102.71,120.22,136.7C414.91,830.2,294.78,810.8,243.37,690.57z"/>
<path fill="#0094FF" d="M1081.12,723.84L786.66,912.35c-19.54,12.4-40.06,23.26-61.57,31.87l-100.74,39.2l77.45-74.91
	c16.52-16.02,34.92-30.75,54.11-43.36l292.83-193.24c7.91-5.36,17.1-8.2,26.79-8.47l0.57-0.02l40.38,0.12l-15.91,37.19
	c-4.08,9.6-10.63,17.5-19.45,23.17L1081.12,723.84z M980.36,1131.77l-4.49,2.7c-4.27,2.69-8.36,1.88-10.38,1.23
	c-1.88-0.87-5.71-2.76-7-7.86l-68.17-237.42l69.41-44.51l25.81,275.04c0.34,4.34-1.61,8.46-5.33,10.71L980.36,1131.77z
	 M712.08,1047.6l-24.22,16.03l-7.6-60.99l30.88-12.59l0.93,57.32L712.08,1047.6z M574.8,890.12l24.36-16.04l56.97,26.47
	l-24.36,23.53l-57.04-33.96L574.8,890.12z M628.62,620.65c-4.09-3.16-4.43-7.58-4.27-9.58c0.15-2.22,0.88-6.45,5.23-9.07l4.49-2.7
	c3.57-2.46,8.13-2.59,12.04-0.56L887.16,733.7l-68.81,45.42L628.83,620.79L628.62,620.65z M740.21,601.75
	c3.43-2.31,8.13-2.59,13.35,0.33c5.36,2.77,6.07,7.67,6.13,9.67c0.04,1.28-0.24,4-1.81,6.61l-23.2-13.03l5.74-3.66L740.21,601.75z
	 M849.68,663.09c3.57-2.31,8.13-2.44,13.49,0.33c5.22,2.77,5.86,7.89,5.92,9.89c0.04,1.28-0.24,4-1.67,6.47l-23.41-13.02l5.74-3.66
	L849.68,663.09z M1007.83,886.59c1.88,0.87,6.09,3.46,6.74,11.15c0.48,4.34-1.62,8.25-5.33,10.57l-5.53,3.65l-2.4-26.39
	c2.91-0.44,5.5,0.41,6.59,0.88L1007.83,886.59z M1019.63,1011.72c1.67,0.88,6.09,3.46,6.73,10.93c0.34,4.34-1.61,8.46-5.33,10.71
	l-5.74,3.66l-2.4-26.39c2.91-0.44,5.65,0.41,6.8,0.87L1019.63,1011.72z M1134.94,715.3l15.77-37.19
	c5.15-11.99,3.84-25.29-3.25-36.21c-7.22-10.56-19.31-16.78-32.22-16.62l-39.64,0.57c-16.39,0.47-33.22,5.52-47.44,14.7
	l-105.91,70.1l-22.26-12.49c4.55-7.83,7.01-16.82,6.52-26.15c-0.5-17.32-10.07-32.74-26.6-41.96c-15.95-8.89-35.33-8.12-50.52,1.81
	l-22.06,14.33l-17.11-9.57c4.55-7.83,7.01-16.61,6.74-25.95c-0.71-17.31-10.07-32.74-26.61-42.18c-15.94-8.67-35.47-8.11-50.74,1.81
	l-22.06,14.33l-33.2-18.38c-15.95-9.03-35.48-8.32-50.74,1.67l-4.49,2.7c-13.24,8.58-21.25,22.51-22.08,38.23
	c-0.97,15.72,5.44,30.52,17.42,40.37l180.97,151.3l-50.19,33.19c-17.57,11.49-34.17,24.88-49.67,39.02l-70.85-32.85
	c-11.86-5.51-25.17-4.56-36.1,2.46l-24.36,16.04c-10.78,7.09-17.15,18.97-16.99,31.88c0.37,12.97,7.12,24.48,18.09,31.22
	l48.49,29.14l-5.83,5.66c-11.74,11.11-15.45,28.41-9.33,42.64c6.28,14.94,21.16,23.86,36.48,23.42c4.35-0.12,8.75-0.96,13.05-2.73
	l6.35-2.54l6.25,51.11c1.65,12.72,9.6,23.62,21.45,29.13c5.35,2.41,10.88,3.68,16.72,3.51c6.77-0.19,13.42-2.24,19.16-6.04
	l24.58-16.04c10.79-6.87,17.15-18.75,16.78-31.72l-1.01-72.3c20.22-8.78,39.83-18.84,58.46-30.93l50.71-32.49l65.16,226.96
	c4.43,15,15.18,26.96,29.96,32.38c6.05,2.18,12.51,3.28,18.56,3.1c8.91-0.26,17.61-2.86,25.31-8l4.27-2.69
	c15.41-9.93,23.67-27.72,22.08-45.72l-3.45-38.06l22.06-14.33c15.26-9.93,23.68-27.36,22.05-47c-1.42-17.29-11.7-32.19-27.25-39.73
	c-8.54-4.32-17.71-5.48-26.59-4.51l-1.63-19.64l22.06-14.33c15.27-9.93,23.69-27.14,21.83-46.99c-1.42-17.29-11.7-32.19-27.25-39.73
	c-8.54-4.11-17.49-5.49-26.45-4.52l-2.37-25.33l105.98-67.89c14.85-9.56,26.72-23.38,33.74-39.85L1134.94,715.3z"/>
</svg>
